<svg fill="#ffffff"
    xmlns="http://www.w3.org/2000/svg"
    xmlns:xlink="http://www.w3.org/1999/xlink" viewBox="0 0 100 72" version="1.1" x="0px" y="0px">
    <title>Artboard 1 Copy 104</title>
    <desc>Created with Sketch.</desc>
    <g stroke="none" stroke-width="1" fill="white" fill-rule="evenodd">
        <g fill="#ffffff">
            <path d="M32,23.004355 L32,23.004355 L32,48.995645 C32,58.9442689 40.056121,67 50,67 C59.942622,67 68,58.9403509 68,48.995645 L68,23.004355 C68,13.0557311 59.943879,5 50,5 C40.057378,5 32,13.0596491 32,23.004355 L32,23.004355 Z M28,23.004355 C28,10.8516853 37.847064,1 50,1 C62.1502645,1 72,10.8438387 72,23.004355 L72,48.995645 C72,61.1483147 62.152936,71 50,71 C37.8497355,71 28,61.1561613 28,48.995645 L28,23.004355 L28,23.004355 Z"></path>
            <path d="M48,17.0085302 C48,15.8992496 48.8877296,15 50,15 C51.1045695,15 52,15.9019504 52,17.0085302 L52,24.9914698 C52,26.1007504 51.1122704,27 50,27 C48.8954305,27 48,26.0980496 48,24.9914698 L48,17.0085302 Z"></path>
        </g>
    </g>
</svg>